<?xml version="1.0" encoding="iso-8859-1"?>
<!-- Generator: Adobe Illustrator 19.0.0, SVG Export Plug-In . SVG Version: 6.00 Build 0)  -->
<svg version="1.1" id="Layer_1" xmlns="http://www.w3.org/2000/svg" xmlns:xlink="http://www.w3.org/1999/xlink" x="0px" y="0px"
	 viewBox="0 0 512.004 512.004" style="enable-background:new 0 0 512.004 512.004;" xml:space="preserve">
<g>
	<g>
		<g>
			<path d="M256.003,106.669c-82.325,0-149.333,66.987-149.333,149.333s67.008,149.333,149.333,149.333
				s149.333-66.987,149.333-149.333S338.329,106.669,256.003,106.669z M256.003,341.335c-47.061,0-85.333-38.272-85.333-85.333
				s38.272-85.333,85.333-85.333s85.333,38.272,85.333,85.333S303.065,341.335,256.003,341.335z"/>
			<path d="M256.003,213.335c-23.531,0-42.667,19.136-42.667,42.667s19.136,42.667,42.667,42.667s42.667-19.136,42.667-42.667
				S279.534,213.335,256.003,213.335z"/>
			<path d="M256.003,91.221c11.797,0,21.333-9.557,21.333-21.333V21.333C277.337,9.557,267.801,0,256.003,0
				c-11.797,0-21.333,9.557-21.333,21.333v48.555C234.67,81.664,244.206,91.221,256.003,91.221z"/>
			<path d="M256.003,420.783c-11.797,0-21.333,9.557-21.333,21.333v48.555c0,11.776,9.536,21.333,21.333,21.333
				c11.797,0,21.333-9.557,21.333-21.333v-48.555C277.337,430.34,267.801,420.783,256.003,420.783z"/>
			<path d="M490.67,234.669h-48.533c-11.797,0-21.333,9.557-21.333,21.333s9.536,21.333,21.333,21.333h48.533
				c11.797,0,21.333-9.557,21.333-21.333S502.467,234.669,490.67,234.669z"/>
			<path d="M91.67,256.002c0-11.776-9.536-21.333-21.333-21.333H21.334c-11.797,0-21.333,9.557-21.333,21.333
				s9.536,21.333,21.333,21.333h49.003C82.134,277.335,91.67,267.778,91.67,256.002z"/>
			<path d="M387.606,145.732c5.461,0,10.923-2.091,15.083-6.251L449.11,93.06c8.32-8.32,8.32-21.824,0-30.165
				c-8.341-8.32-21.845-8.32-30.165,0l-46.421,46.421c-8.341,8.341-8.341,21.824,0,30.165
				C376.684,143.642,382.145,145.732,387.606,145.732z"/>
			<path d="M109.315,372.523l-46.421,46.421c-8.32,8.32-8.32,21.824,0,30.165c4.181,4.16,9.621,6.251,15.083,6.251
				c5.461,0,10.923-2.091,15.083-6.251l46.421-46.421c8.341-8.341,8.341-21.824,0-30.165
				C131.139,364.181,117.657,364.181,109.315,372.523z"/>
			<path d="M402.691,372.523c-8.341-8.341-21.824-8.341-30.165,0c-8.341,8.341-8.341,21.824,0,30.165l46.421,46.421
				c4.16,4.16,9.621,6.251,15.083,6.251c5.461,0,10.901-2.091,15.083-6.251c8.32-8.341,8.32-21.845,0-30.165L402.691,372.523z"/>
			<path d="M109.315,139.482c4.16,4.16,9.621,6.251,15.083,6.251c5.461,0,10.923-2.091,15.083-6.251
				c8.341-8.341,8.341-21.824,0-30.165L93.059,62.895c-8.32-8.32-21.824-8.32-30.165,0c-8.32,8.341-8.32,21.845,0,30.165
				L109.315,139.482z"/>
			<path d="M441.337,154.159l-22.357,9.493c-10.859,4.608-15.915,17.131-11.307,27.968c3.456,8.128,11.349,13.013,19.648,13.013
				c2.795,0,5.611-0.555,8.32-1.707l22.357-9.493c10.859-4.608,15.915-17.131,11.328-27.968
				C464.697,154.607,452.089,149.594,441.337,154.159z"/>
			<path d="M70.67,357.845l22.357-9.493c10.859-4.608,15.915-17.131,11.307-27.968c-4.629-10.859-17.216-15.872-27.968-11.307
				l-22.357,9.493c-10.859,4.608-15.915,17.131-11.328,27.968c3.477,8.128,11.371,13.013,19.648,13.013
				C65.123,359.552,67.961,358.997,70.67,357.845z"/>
			<path d="M459.067,315.034l-22.507-9.088c-10.923-4.373-23.339,0.853-27.755,11.776c-4.416,10.923,0.853,23.36,11.755,27.776
				l22.507,9.088c2.624,1.067,5.333,1.579,8,1.579c8.448,0,16.427-5.056,19.776-13.355
				C475.259,331.887,469.989,319.45,459.067,315.034z"/>
			<path d="M52.94,196.971l22.507,9.088c2.624,1.067,5.333,1.579,8,1.579c8.427,0,16.405-5.056,19.755-13.355
				c4.416-10.923-0.853-23.36-11.755-27.776l-22.507-9.088c-10.923-4.373-23.36,0.832-27.776,11.776
				C36.748,180.117,42.017,192.555,52.94,196.971z"/>
			<path d="M348.379,418.991c-4.629-10.859-17.131-15.893-27.989-11.307c-10.837,4.608-15.915,17.131-11.307,27.968l9.493,22.357
				c3.456,8.107,11.349,12.992,19.627,12.992c2.795,0,5.611-0.533,8.341-1.707c10.859-4.587,15.915-17.109,11.307-27.968
				L348.379,418.991z"/>
			<path d="M163.628,93.013c3.456,8.128,11.349,13.013,19.648,13.013c2.795,0,5.611-0.555,8.341-1.707
				c10.837-4.608,15.915-17.131,11.307-27.968l-9.493-22.357c-4.608-10.859-17.131-15.872-27.968-11.285
				c-10.859,4.587-15.915,17.109-11.307,27.968L163.628,93.013z"/>
			<path d="M194.254,408.783c-10.837-4.437-23.36,0.875-27.776,11.797l-9.088,22.507c-4.395,10.944,0.875,23.36,11.819,27.776
				c2.603,1.045,5.312,1.557,7.979,1.557c8.448,0,16.448-5.056,19.797-13.376l9.088-22.507
				C210.467,425.615,205.198,413.199,194.254,408.783z"/>
			<path d="M317.753,103.221c2.603,1.067,5.312,1.557,7.979,1.557c8.448,0,16.448-5.056,19.797-13.355l9.088-22.507
				c4.395-10.944-0.875-23.36-11.819-27.776c-10.816-4.395-23.36,0.853-27.776,11.819l-9.088,22.507
				C301.539,86.389,306.809,98.805,317.753,103.221z"/>
		</g>
	</g>
</g>
<g>
</g>
<g>
</g>
<g>
</g>
<g>
</g>
<g>
</g>
<g>
</g>
<g>
</g>
<g>
</g>
<g>
</g>
<g>
</g>
<g>
</g>
<g>
</g>
<g>
</g>
<g>
</g>
<g>
</g>
</svg>
